<svg width="145" height="76" viewBox="0 0 145 76" fill="none" xmlns="http://www.w3.org/2000/svg">
<g clip-path="url(#clip0_2061_2527)">
<path d="M82.2488 30.272H86.0699C90.4455 30.272 90.9658 33.2522 90.9658 34.5416C90.9658 36.258 90.0447 38.7771 86.0699 38.7771H84.7735V43.952H82.2402V30.272H82.2488ZM84.782 36.3178H86.2746C86.9399 36.3178 88.4326 36.2068 88.4326 34.5246C88.4326 32.8423 86.9399 32.7313 86.2746 32.7313H84.782V36.3178Z" fill="#424243"/>
<path d="M95.1192 30.272V38.9052C95.1192 40.0153 95.2301 41.8257 97.2601 41.8257C99.2901 41.8257 99.3668 39.9983 99.3668 38.9052V30.272H101.9V38.8113C101.9 42.6967 99.7592 44.285 97.243 44.285C95.3409 44.285 92.5859 43.3201 92.5859 38.8113V30.272H95.1192Z" fill="#424243"/>
<path d="M104.408 30.272H106.941V41.4926H111.112V43.952H104.408V30.272Z" fill="#424243"/>
<path d="M113.62 32.7313H111.087V30.272H118.678V32.7313H116.145V43.952H113.612V32.7313H113.62Z" fill="#424243"/>
<path d="M120.017 30.272H123.966C128.564 30.272 129.101 33.3034 129.101 34.6185C129.101 36.8046 127.643 38.6832 125.408 38.9052L129.246 43.952H126.124L122.576 38.9052H122.542V43.952H120.009V30.272H120.017ZM122.542 36.8046H124.035C124.623 36.8046 126.568 36.7533 126.568 34.7722C126.568 32.7911 124.632 32.7398 124.035 32.7398H122.542V36.8046Z" fill="#424243"/>
<path d="M135.285 30.272H137.315L143.004 43.952H140.215L138.807 40.4167H133.783L132.376 43.952H129.587L135.276 30.272H135.285ZM137.852 37.9659L136.3 33.9695L134.747 37.9659H137.852Z" fill="#424243"/>
<path d="M75.6649 31.1514C72.5005 14.2948 58.7681 1.43453 42.2637 -0.119631C24.659 -1.7848 8.71755 7.76217 2.45696 23.7051C-3.89745 39.8957 1.04108 57.8453 14.8502 68.4512C16.8887 70.0139 19.1917 71.235 21.9978 73.0026V66.2224C12.0099 60.6633 5.24608 49.9977 5.24608 37.7437C5.24608 19.7599 19.8058 5.18329 37.7687 5.18329C38.0331 5.18329 38.3061 5.20037 38.5705 5.20037C42.5281 5.19183 46.3749 5.99453 50.0681 7.59992C55.5867 9.86284 60.3546 13.5945 63.8687 18.3168C70.5131 26.6085 72.1764 36.5824 68.9608 47.5896C64.534 62.7554 49.147 72.4049 33.6149 70.1078C33.4784 70.0907 33.3334 70.0395 33.1799 69.9797C30.5443 69.604 28.0196 68.9208 25.6228 67.9559C25.6143 69.2368 25.5887 70.5091 25.5546 71.7815C25.4949 73.7541 26.2199 74.4885 28.0537 74.9923C54.8873 82.3959 80.7996 58.5541 75.6564 31.1514H75.6649Z" fill="#424243"/>
<path d="M31.5671 68.4512C31.2942 66.4871 31.4648 64.4633 31.4648 62.1492C34.7827 62.1492 37.8363 62.2346 40.8898 62.1321C52.1571 61.7649 61.6419 53.9002 63.8936 43.1235C66.2307 31.9541 60.8827 20.9811 50.6986 16.0966C42.6724 12.2453 34.1601 14.2179 25.7757 13.6714V38.333C27.3366 39.7932 29.8868 41.8085 31.5245 43.0894V19.5721C35.0813 19.5721 38.2457 19.4013 41.3845 19.6062C50.3318 20.1698 57.6245 27.1209 58.5372 35.7797C59.501 44.9083 53.9057 53.3707 45.1033 55.608C42.4251 56.2912 39.5421 56.2485 36.7445 56.3339C33.0939 56.4449 29.4263 56.3595 25.5966 56.3595C25.5966 60.3901 25.6477 64.1986 25.6136 67.9559C28.0018 68.9209 30.5351 69.6125 33.1707 69.9797C32.4457 69.6894 31.6268 68.9977 31.5501 68.4597L31.5671 68.4512Z" fill="#786932"/>
<path d="M16.1034 62.0126C18.0225 63.7973 19.7028 64.933 22.0058 66.2139V52.6535C28.4199 52.6535 34.4758 52.7816 40.5231 52.6193C46.7069 52.4485 51.3128 49.4683 53.7522 43.764C56.1831 38.0854 55.279 32.6971 51.1763 28.0346C46.8775 23.1501 41.2225 22.7317 35.2093 23.338V28.991C36.8213 28.991 38.2202 28.9739 39.619 28.991C45.1716 29.0508 49.1122 32.68 49.1719 37.778C49.2402 42.9699 45.2825 46.804 39.636 46.8724C34.3649 46.9407 29.0852 46.898 23.8055 46.8724C23.234 46.8724 22.6625 46.7016 21.8352 46.5735V28.0858L16.0693 23.3294V61.5429" fill="#D56F2D"/>
<path d="M140.096 26.7195C140.096 25.3788 141.187 24.2858 142.535 24.2858C143.883 24.2858 144.974 25.3788 144.974 26.7195C144.974 28.0602 143.883 29.1618 142.535 29.1618C141.187 29.1618 140.096 28.0687 140.096 26.7195ZM144.522 26.7195C144.522 25.6265 143.627 24.7384 142.544 24.7384C141.46 24.7384 140.556 25.635 140.556 26.7195C140.556 27.804 141.443 28.7092 142.544 28.7092C143.644 28.7092 144.522 27.8296 144.522 26.7195ZM141.725 25.3788H142.518C143.431 25.3788 143.533 25.968 143.533 26.2328C143.533 26.6597 143.243 27.0525 142.799 27.0782L143.533 28.0773H142.91L142.236 27.0782V28.0773H141.733V25.3703L141.725 25.3788ZM142.228 26.6683H142.526C142.953 26.6683 143.03 26.4377 143.03 26.2669C143.03 26.0961 142.953 25.8656 142.526 25.8656H142.228V26.6683Z" fill="#424243"/>
</g>
<defs>
<clipPath id="clip0_2061_2527">
<rect width="145" height="76" fill="white"/>
</clipPath>
</defs>
</svg>
