<svg width="325" height="170" viewBox="0 0 325 170" fill="none" xmlns="http://www.w3.org/2000/svg">
<g clip-path="url(#clip0_2061_3102)">
<path d="M184.191 67.7139H192.749C202.548 67.7139 203.713 74.3802 203.713 77.2644C203.713 81.1038 201.65 86.7386 192.749 86.7386H189.845V98.3139H184.172V67.7139H184.191ZM189.864 81.2375H193.207C194.697 81.2375 198.04 80.9892 198.04 77.2262C198.04 73.4633 194.697 73.215 193.207 73.215H189.864V81.2375Z" fill="#424243"/>
<path d="M213.014 67.7139V87.0251C213.014 89.5082 213.262 93.5577 217.808 93.5577C222.354 93.5577 222.526 89.47 222.526 87.0251V67.7139H228.199V86.815C228.199 95.506 223.405 99.0588 217.77 99.0588C213.51 99.0588 207.341 96.9004 207.341 86.815V67.7139H213.014Z" fill="#424243"/>
<path d="M233.816 67.7139H239.489V92.8127H248.83V98.3139H233.816V67.7139Z" fill="#424243"/>
<path d="M254.446 73.215H248.773V67.7139H265.773V73.215H260.1V98.3139H254.427V73.215H254.446Z" fill="#424243"/>
<path d="M268.772 67.7139H277.615C287.911 67.7139 289.114 74.4948 289.114 77.4363C289.114 82.3262 285.848 86.5285 280.844 87.0251L289.439 98.3139H282.448L274.502 87.0251H274.426V98.3139H268.753V67.7139H268.772ZM274.426 82.3262H277.768C279.086 82.3262 283.441 82.2116 283.441 77.7802C283.441 73.3487 279.105 73.2341 277.768 73.2341H274.426V82.3262Z" fill="#424243"/>
<path d="M302.962 67.7139H307.508L320.249 98.3139H314.003L310.851 90.406H299.6L296.449 98.3139H290.203L302.943 67.7139H302.962ZM308.712 84.924L305.235 75.9847L301.759 84.924H308.712Z" fill="#424243"/>
<path d="M169.447 69.6802C162.361 31.9746 131.608 3.20831 94.6472 -0.268098C55.2225 -3.99282 19.5225 17.3622 5.50223 53.024C-8.72811 89.2398 2.33145 129.39 33.2562 153.114C37.8213 156.609 42.9786 159.341 49.2629 163.295V148.129C26.8955 135.694 11.7483 111.836 11.7483 84.4263C11.7483 44.1993 44.3539 11.5937 84.5809 11.5937C85.173 11.5937 85.7843 11.6319 86.3764 11.6319C95.2393 11.6128 103.854 13.4083 112.125 16.9993C124.483 22.0611 135.161 30.4083 143.03 40.9712C157.91 59.5184 161.635 81.8285 154.434 106.45C144.52 140.373 110.062 161.958 75.2786 156.82C74.973 156.781 74.6483 156.667 74.3045 156.533C68.4022 155.693 62.7483 154.164 57.3809 152.006C57.3618 154.871 57.3045 157.717 57.2281 160.563C57.0944 164.976 58.718 166.618 62.8247 167.745C122.917 184.306 180.946 130.976 169.428 69.6802H169.447Z" fill="#424243"/>
<path d="M70.6928 153.114C70.0816 148.721 70.4636 144.194 70.4636 139.017C77.8939 139.017 84.7321 139.208 91.5703 138.979C116.803 138.158 138.043 120.566 143.086 96.4602C148.32 71.4759 136.343 46.9309 113.537 36.0051C95.5625 27.3905 76.4995 31.8029 57.7231 30.5804V85.7444C61.2186 89.0107 66.9299 93.5186 70.5973 96.3838V43.7793C78.5625 43.7793 85.649 43.3972 92.6782 43.8557C112.715 45.1163 129.047 60.6647 131.091 80.0332C133.249 100.452 120.719 119.382 101.006 124.386C95.0085 125.914 88.5524 125.819 82.2872 126.01C74.1119 126.258 65.8984 126.067 57.322 126.067C57.322 135.083 57.4366 143.602 57.3602 152.006C62.7085 154.165 68.3816 155.712 74.2838 156.533C72.6602 155.884 70.8265 154.337 70.6546 153.133L70.6928 153.114Z" fill="#786932"/>
<path d="M36.0626 138.712C40.3604 142.704 44.1233 145.245 49.2806 148.11V117.777C63.6446 117.777 77.2064 118.064 90.7491 117.701C104.597 117.319 114.912 110.653 120.375 97.893C125.819 85.1907 123.794 73.1379 114.606 62.7087C104.979 51.7828 92.3154 50.8469 78.8491 52.2031V64.848C82.4593 64.848 85.5918 64.8098 88.7244 64.848C101.159 64.9817 109.984 73.0997 110.118 84.5031C110.27 96.1166 101.408 104.693 88.7626 104.846C76.9581 104.999 65.1345 104.903 53.3109 104.846C52.0312 104.846 50.7514 104.464 48.8986 104.177V62.8233L35.9862 52.184V137.662" fill="#D56F2D"/>
<path d="M313.736 59.7671C313.736 56.7682 316.181 54.3232 319.199 54.3232C322.217 54.3232 324.662 56.7682 324.662 59.7671C324.662 62.7659 322.217 65.23 319.199 65.23C316.181 65.23 313.736 62.785 313.736 59.7671ZM323.649 59.7671C323.649 57.3221 321.644 55.3356 319.218 55.3356C316.792 55.3356 314.767 57.3412 314.767 59.7671C314.767 62.1929 316.754 64.2176 319.218 64.2176C321.682 64.2176 323.649 62.2502 323.649 59.7671ZM317.384 56.7682H319.161C321.204 56.7682 321.434 58.0862 321.434 58.6783C321.434 59.6334 320.784 60.512 319.791 60.5693L321.434 62.8041H320.039L318.53 60.5693V62.8041H317.403V56.7491L317.384 56.7682ZM318.511 59.6525H319.18C320.135 59.6525 320.307 59.1367 320.307 58.7547C320.307 58.3727 320.135 57.8569 319.18 57.8569H318.511V59.6525Z" fill="#424243"/>
</g>
<defs>
<clipPath id="clip0_2061_3102">
<rect width="324.719" height="170" fill="white"/>
</clipPath>
</defs>
</svg>
